<svg width="181" height="220" viewBox="0 0 181 220" fill="none" xmlns="http://www.w3.org/2000/svg">
<ellipse cx="90.5" cy="88" rx="90.5" ry="88" fill="#D9D9D9"/>
<path d="M89.5 46C87.0062 46 85 47.9824 85 50.4464C85 52.9105 87.0062 54.8929 89.5 54.8929H94.3188L100.806 66.75H72.7937L67.6562 59.7098C66.8125 58.5426 65.4437 57.8571 64 57.8571H53.5C51.0062 57.8571 49 59.8395 49 62.3036C49 64.7676 51.0062 66.75 53.5 66.75H61.6937L65.8375 72.4377L60.85 82.2754C58.975 81.8123 57.0062 81.5714 55 81.5714C41.7438 81.5714 31 92.1873 31 105.286C31 118.384 41.7438 129 55 129C67.2438 129 77.3312 119.94 78.8125 108.25H88C89.5938 108.25 91.0563 107.416 91.8813 106.064L107.781 79.4779L111.85 86.9071C106.45 91.2609 103 97.875 103 105.286C103 118.384 113.744 129 127 129C140.256 129 151 118.384 151 105.286C151 92.1873 140.256 81.5714 127 81.5714C124.469 81.5714 122.031 81.9605 119.744 82.683L101.387 49.1125C100.337 47.1857 98.3125 46 96.1 46H89.5ZM116.988 96.3373L123.044 107.398C124.225 109.565 126.963 110.362 129.138 109.195C131.313 108.028 132.137 105.323 130.956 103.174L124.9 92.1132C125.575 92.002 126.288 91.9464 127 91.9464C134.462 91.9464 140.5 97.9121 140.5 105.286C140.5 112.659 134.462 118.625 127 118.625C119.538 118.625 113.5 112.659 113.5 105.286C113.5 101.84 114.813 98.7087 116.988 96.3373ZM55.975 108.25H68.1625C66.7937 114.197 61.4125 118.625 55 118.625C47.5375 118.625 41.5 112.659 41.5 105.286C41.5 97.9121 47.5375 91.9464 55 91.9464C55.3188 91.9464 55.6375 91.965 55.9563 91.9835L51.4188 100.969C49.7313 104.322 52.1875 108.269 55.975 108.269V108.25ZM62.2937 99.3571L71.8 80.5895L85.4688 99.3386L85.45 99.3571H62.275H62.2937ZM79.2812 75.6429H99.6062L90.4375 90.983L79.2625 75.6429H79.2812Z" fill="black"/>
<path d="M121.698 136.351C124.562 136.546 126.295 139.604 124.99 142.161L96.8063 197.368C95.3576 200.205 91.3343 200.293 89.7635 197.521L56.1048 138.119C54.534 135.347 56.6768 131.941 59.8556 132.156L121.698 136.351Z" fill="#D9D9D9"/>
</svg>
